{"title":"Madagascar 3 Europes Most Wanted 2012 1080p BRrip x264 [Dual Aud","uid":7794041,"size":1583562274,"categoryP":"video","categoryS":"hd___movies","magnet":"?xt=urn:btih:ceddae954d31cc10a6d231378db065c0117fa3bf&amp;dn=Madagascar+3+Europes+Most+Wanted+2012+1080p+BRrip+x264+%5BDual+Aud&amp;tr=udp%3A%2F%2Ftracker.openbittorrent.com%3A80&amp;tr=udp%3A%2F%2Fopen.demonii.com%3A1337&amp;tr=udp%3A%2F%2Ftracker.coppersurfer.tk%3A6969&amp;tr=udp%3A%2F%2Fexodus.desync.com%3A6969","seeders":2,"leechers":0,"uploader":"nimitmak","files":10,"time":1352097068,"description":"::General::\nComplete name: Madagascar 3 Europes Most Wanted 2012 1080p BRrip x264 [Dual Audio] English-Hindi NimitMak SilverRG\nDirector: Eric Darnell, Tom McGrath, Conrad Vernon\nFormat: MPEG-4\nFile size: 1.46 GiB\nDuration: 1h 33mn\nOverall Bitrate: 2237 Kbps\nLanguage: Dual Audio [English-Hind]\nSub Title: English Embedded + .Srt (Included) Can Be Turned Off\nEncoded date: 2012-11-04\nWriting application: MeGui\nWriting library: x264 core 100 r1659 57b2e56\nEncoder: NimitMak\nSource: 1080p.BluRay.x264.AC3-HDChina\n\n::Video::\nID: 1\nFormat: AVC\nFormat/Info: Advanced Video Codec\nFormat profile: &lt;a class=&quot;__cf_email__&quot; href=&quot;/cdn-cgi/l/email-protection&quot; data-cfemail=&quot;773f1e101f373b435947&quot;&gt;[email&amp;#160;protected]&lt;/a&gt;&lt;script cf-hash='f9e31' type=&quot;text/javascript&quot;&gt;\n/* &lt;![CDATA[ */!function(){try{var t=&quot;currentScript&quot;in document?document.currentScript:function(){for(var t=document.getElementsByTagName(&quot;script&quot;),e=t.length;e--;)if(t[e].getAttribute(&quot;cf-hash&quot;))return t[e]}();if(t&amp;&amp;t.previousSibling){var e,r,n,i,c=t.previousSibling,a=c.getAttribute(&quot;data-cfemail&quot;);if(a){for(e=&quot;&quot;,r=parseInt(a.substr(0,2),16),n=2;a.length-n;n+=2)i=parseInt(a.substr(n,2),16)^r,e+=String.fromCharCode(i);e=document.createTextNode(e),c.parentNode.replaceChild(e,c)}}}catch(u){}}();/* ]]&gt; */&lt;/script&gt;\nFormat settings, CABAC: Yes\nFormat settings, ReFrames: 4 frames\nCodec ID: V_MPEG4/ISO/AVC\nNominal Bitrate: 2042 Kbps / 22.0 Mbps\nWidth: 1920 pixels\nHeight: 1080 pixels\nDisplay aspect ratio: 16:9\nFrame rate: 23.976 fps\nColor space: YUV\nChroma subsampling: 4:2:0\nBit depth: 8 bits\nScan type: Progressive\nWriting library: x264 core 100 r1659 57b2e56\n\n::Audio #1::\nID: 2\nFormat: AAC\nFormat/Info: Advanced Audio Codec\nFormat profile: HE-AAC / LC\nCodec ID: 40\nDuration: 1h 33mn\nBit rate mode: Variable\nBit rate: 63.9 Kbps\nMaximum bit rate: 83.8 Kbps\nChannel(s): 2 channels\nChannel positions: Front: L R\nSampling rate: 48.0 KHz / 24.0 KHz\nCompression mode: Lossy\nStream size: 42.7 MiB (3%)\nTitle: English - Nimitmak SilverRG\nLanguage: English\n\n::Audio #2::\nID: 3\nFormat: AAC\nFormat/Info: Advanced Audio Codec\nFormat profile: HE-AAC / LC\nCodec ID: 40\nDuration: 1h 33mn\nBit rate mode: Variable\nBit rate: 128 Kbps\nMaximum bit rat: 162 Kbps\nChannel(s): 2 channels\nChannel positions: Front: L R\nSampling rate: 48.0 KHz / 24.0 KHz\nCompression mode: Lossy\nStream size: 85.3 MiB (6%)\nTitle: Hindi - NimitMak SilverRG(Thanks to Prisak Bro For Audio)\nLanguage: Hindi\n\n::Text #1::\nID: 4\nFormat: Timed text\nCodec ID: tx3g\nDuration: 1h 25mn\nBit rate mode: Variable\nBit rate: 107 bps\nStream size: 67.0 KiB (0%)\nTitle: English - Nimitmak SilverRG\n\nScreens :","torrent":{"xt":"urn:btih:ceddae954d31cc10a6d231378db065c0117fa3bf","amp;dn":"Madagascar+3+Europes+Most+Wanted+2012+1080p+BRrip+x264+%5BDual+Aud","amp;tr":["udp%3A%2F%2Ftracker.openbittorrent.com%3A80","udp%3A%2F%2Fopen.demonii.com%3A1337","udp%3A%2F%2Ftracker.coppersurfer.tk%3A6969","udp%3A%2F%2Fexodus.desync.com%3A6969"],"infoHash":"ceddae954d31cc10a6d231378db065c0117fa3bf","infoHashBuffer":{"type":"Buffer","data":[206,221,174,149,77,49,204,16,166,210,49,55,141,176,101,192,17,127,163,191]},"announce":[],"urlList":[]}}